<svg xmlns="http://www.w3.org/2000/svg" viewBox="0 0 32 32" width="32" height="32">
  <defs/>
  <g clip-path="url(#simple-icons:twitter__clip0)">
    <path fill="#EAEEF1" d="M31.937 6.431a13.332 13.332 0 01-3.766 1.034 6.61 6.61 0 002.884-3.631 13.55 13.55 0 01-4.17 1.579 6.56 6.56 0 00-11.178 5.975c-5.453-.257-10.286-2.876-13.52-6.834a6.43 6.43 0 00-.888 3.3 6.56 6.56 0 002.917 5.461 6.54 6.54 0 01-2.97-.821v.081a6.564 6.564 0 005.26 6.436 6.66 6.66 0 01-2.949.113 6.582 6.582 0 006.139 4.556 13.157 13.157 0 01-8.136 2.806c-.52 0-1.039-.03-1.56-.089a18.659 18.659 0 0010.076 2.945c12.071 0 18.664-9.994 18.664-18.647 0-.279 0-.56-.02-.84A13.246 13.246 0 0032 6.458l-.063-.027z"/>
  </g>
  <defs>
    <clipPath id="simple-icons:twitter__clip0">
      <path fill="#fff" d="M0 0h32v32H0z"/>
    </clipPath>
  </defs>
</svg>
